<svg width="12" height="16" viewBox="0 0 12 16" fill="none" xmlns="http://www.w3.org/2000/svg">
<path d="M9.6 3.78499C8.31 1.91581 7.06875 0.76585 6.195 0.0697171C6.07875 -0.0225878 5.92125 -0.0225878 5.805 0.0658711C4.9425 0.723543 3.70125 1.92735 2.41125 3.7773C1.0125 5.77724 0.0487499 7.9464 0.00374994 10.3502C0.00374994 10.3963 0 10.4463 0 10.4925C0 11.2001 0.14625 11.8732 0.40875 12.4963C0.5625 12.8539 0.75375 13.1924 0.97875 13.5078C2.0475 15.0077 3.89625 16 5.99625 16C9.31125 16 12 13.5347 12 10.4925C12 8.04255 10.9875 5.79262 9.6 3.78499ZM6.375 13.9501H6.35625C5.985 13.9501 5.90625 13.4078 6.25875 13.2924C7.95 12.7463 8.86875 11.8117 9.49875 10.1848C9.63 9.8425 10.125 9.9348 10.1288 10.304V10.3579C10.125 12.3424 8.445 13.9501 6.375 13.9501Z" fill="#4478ED"/>
</svg>
